<svg width="120" height="119" xmlns="http://www.w3.org/2000/svg" xmlns:xlink="http://www.w3.org/1999/xlink" xml:space="preserve" overflow="hidden"><defs><clipPath id="clip0"><rect x="831" y="601" width="120" height="119"/></clipPath><clipPath id="clip1"><path d="M831.755 613.222 938.533 601.415 950.34 708.193 843.562 720Z" fill-rule="evenodd" clip-rule="evenodd"/></clipPath><clipPath id="clip2"><path d="M831.755 613.222 938.533 601.415 950.34 708.193 843.562 720Z" fill-rule="evenodd" clip-rule="evenodd"/></clipPath><clipPath id="clip3"><path d="M831.755 613.222 938.533 601.415 950.34 708.193 843.562 720Z" fill-rule="evenodd" clip-rule="evenodd"/></clipPath></defs><g clip-path="url(#clip0)" transform="translate(-831 -601)"><g clip-path="url(#clip1)"><g clip-path="url(#clip2)"><g clip-path="url(#clip3)"><path d="M938.617 653.083 921.323 639.233C919.89 638.491 918.135 638.91 917.146 640.145 916.156 641.381 916.131 643.185 917.168 644.421L928.162 653.226 916.261 654.542C913.146 654.886 909.822 655.366 906.263 655.76 886.946 658.234 857.631 661.926 851.508 651.344 850.544 649.762 848.568 649.192 846.874 650.168 845.292 651.131 844.722 653.108 845.698 654.801 852.772 666.854 874.325 666.272 895.013 663.984 899.128 663.529 903.231 662.963 907.124 662.532 910.671 662.028 914.008 661.659 917.011 661.327L929.024 659.998 920.219 670.992C919.366 672.438 919.686 674.316 920.933 675.417 922.181 676.517 924.195 676.407 925.407 675.147L939.257 657.853C939.554 657.483 939.739 657.125 939.801 656.667 939.789 656.556 939.888 656.433 939.876 656.321 939.863 656.21 939.863 656.21 939.962 656.087 939.95 655.975 939.938 655.864 939.925 655.753 939.913 655.642 939.901 655.53 939.888 655.419 939.876 655.308 939.876 655.308 939.864 655.197 939.654 654.319 939.234 653.578 938.617 653.083Z" fill="#FFFFFF"/></g></g></g></g></svg>